<svg width="24" height="24" viewBox="0 0 24 24" fill="none" xmlns="http://www.w3.org/2000/svg">
<circle cx="12" cy="12" r="12" fill="#FF9D44"/>
<path d="M12 17.1778L15.3 13.9884C15.9526 13.3576 16.397 12.5539 16.577 11.679C16.7571 10.8041 16.6646 9.89726 16.3114 9.07313C15.9582 8.249 15.36 7.54462 14.5926 7.04903C13.8252 6.55345 12.923 6.28894 12 6.28894C11.077 6.28894 10.1748 6.55345 9.40739 7.04903C8.63997 7.54462 8.04183 8.249 7.68861 9.07313C7.33539 9.89726 7.24294 10.8041 7.42297 11.679C7.603 12.5539 8.0474 13.3576 8.7 13.9884L12 17.1778ZM12 19L7.75734 14.8995C6.91823 14.0885 6.34679 13.0552 6.11529 11.9303C5.88378 10.8054 6.0026 9.63942 6.45673 8.5798C6.91086 7.52017 7.67989 6.6145 8.66659 5.9773C9.65328 5.3401 10.8133 5 12 5C13.1867 5 14.3467 5.3401 15.3334 5.9773C16.3201 6.6145 17.0891 7.52017 17.5433 8.5798C17.9974 9.63942 18.1162 10.8054 17.8847 11.9303C17.6532 13.0552 17.0818 14.0885 16.2427 14.8995L12 19ZM12 12.0876C12.3536 12.0876 12.6928 11.9518 12.9428 11.7102C13.1929 11.4685 13.3333 11.1407 13.3333 10.7989C13.3333 10.4572 13.1929 10.1294 12.9428 9.88772C12.6928 9.64604 12.3536 9.51027 12 9.51027C11.6464 9.51027 11.3072 9.64604 11.0572 9.88772C10.8071 10.1294 10.6667 10.4572 10.6667 10.7989C10.6667 11.1407 10.8071 11.4685 11.0572 11.7102C11.3072 11.9518 11.6464 12.0876 12 12.0876ZM12 13.3763C11.2928 13.3763 10.6145 13.1047 10.1144 12.6214C9.61429 12.138 9.33333 11.4825 9.33333 10.7989C9.33333 10.1154 9.61429 9.45984 10.1144 8.97649C10.6145 8.49315 11.2928 8.22161 12 8.22161C12.7072 8.22161 13.3855 8.49315 13.8856 8.97649C14.3857 9.45984 14.6667 10.1154 14.6667 10.7989C14.6667 11.4825 14.3857 12.138 13.8856 12.6214C13.3855 13.1047 12.7072 13.3763 12 13.3763Z" fill="white"/>
</svg>
