<svg width="168" height="168" viewBox="0 0 168 168" fill="none" xmlns="http://www.w3.org/2000/svg">
<path d="M115.071 41.0784L122.264 39.0589C122.859 38.8931 123.428 39.4426 123.428 40.1906V72.4824L135.148 35.9663C135.265 35.6053 135.519 35.3354 135.828 35.2509L149.762 31.3355C150.549 31.1144 151.193 32.103 150.835 32.9875L131.935 79.7732L152.045 130.884C152.393 131.769 151.752 132.744 150.969 132.526L136.875 128.569C136.566 128.481 136.309 128.214 136.195 127.85L123.428 87.9486V123.333C123.428 124.081 122.862 124.631 122.264 124.465L115.071 122.445C114.638 122.325 114.329 121.85 114.329 121.307V42.2165C114.329 41.6735 114.638 41.1987 115.071 41.0784Z" fill="#172229"/>
<path d="M55.3285 144.708L43.293 141.248C42.9451 141.147 42.7077 140.721 42.7044 140.194L42.454 90.0592L28.4999 135.804C28.3113 136.425 27.8268 136.799 27.3813 136.672L15.9247 133.378C15.3589 133.216 15.0824 132.403 15.3361 131.651L32.7665 79.692L17.5279 36.3501C17.2742 35.6281 17.5377 34.8412 18.084 34.6753L28.9064 31.3746C29.3357 31.2445 29.804 31.5892 29.9991 32.1746L42.3565 69.7183L42.1483 28.1844C42.1483 27.6804 42.3695 27.2707 42.7077 27.1698L53.6049 23.8464C54.096 23.6968 54.6098 24.3244 54.6195 25.0886L56.3366 143.388C56.3496 144.188 55.8358 144.861 55.3317 144.718L55.3285 144.708Z" fill="#172229"/>
<path d="M106.59 128.533L65.8493 144.76C63.8818 145.544 62.2461 144.347 62.2461 142.064V26.461C62.2461 24.1814 63.8786 22.9814 65.8493 23.7652L106.59 39.9924C107.62 40.4021 108.443 42.0313 108.443 43.6313V124.891C108.443 126.494 107.62 128.12 106.59 128.53V128.533Z" stroke="#FF9D44" stroke-width="2.14583" stroke-miterlimit="10" stroke-linecap="round"/>
<path d="M101.061 79.1586L75.0847 78.0236C73.3514 77.9489 71.9108 76.1505 71.9108 74.0107V38.5386C71.9108 36.3988 73.3481 35.1533 75.0847 35.7452L101.061 44.5807C102.196 44.9677 103.1 46.6359 103.1 48.3204V76.2058C103.1 77.8871 102.196 79.2106 101.061 79.1618V79.1586Z" fill="#172229"/>
<path d="M101.061 123.854L75.0847 132.67C73.3514 133.258 71.9108 132.013 71.9108 129.873V94.4008C71.9108 92.261 73.3481 90.4659 75.0847 90.3911L101.061 89.2757C102.196 89.2269 103.1 90.5505 103.1 92.2317V120.117C103.1 121.798 102.196 123.47 101.061 123.854Z" fill="#172229"/>
<path d="M72.9572 84.261C72.9572 85.9942 71.78 87.4251 70.3004 87.4544C68.7915 87.4869 67.546 86.056 67.546 84.261C67.546 82.4659 68.7915 81.035 70.3004 81.0676C71.8093 81.1001 72.9572 82.5309 72.9572 84.261Z" fill="#FF9D44"/>
</svg>
