<svg width="150" height="150" viewBox="0 0 150 150" fill="none" xmlns="http://www.w3.org/2000/svg">
<rect width="150" height="150" fill="black"/>
<path d="M97.3358 34.6459L102.456 33.2084C102.88 33.0903 103.285 33.4815 103.285 34.0139V57.0001L111.627 31.007C111.711 30.7501 111.891 30.5579 112.111 30.4977L122.03 27.7107C122.59 27.5533 123.049 28.257 122.794 28.8866L109.34 62.1899L123.655 98.5718C123.903 99.2014 123.447 99.8959 122.889 99.7408L112.857 96.9237C112.637 96.8612 112.454 96.6713 112.373 96.4121L103.285 68.0093V93.1968C103.285 93.7292 102.882 94.1204 102.456 94.0024L97.3358 92.5649C97.0279 92.4792 96.808 92.1413 96.808 91.7547V35.4561C96.808 35.0695 97.0279 34.7315 97.3358 34.6459Z" fill="white"/>
<path d="M54.8102 108.412L46.2431 105.949C45.9954 105.877 45.8264 105.574 45.8241 105.199L45.6459 69.5116L35.713 102.074C35.5787 102.516 35.2338 102.782 34.9167 102.692L26.7616 100.347C26.3588 100.231 26.1621 99.6528 26.3426 99.1181L38.75 62.132L27.9028 31.2801C27.7223 30.7662 27.9098 30.206 28.2986 30.088L36.0024 27.7384C36.3079 27.6458 36.6412 27.8912 36.7801 28.3079L45.5764 55.0324L45.4283 25.4676C45.4283 25.1088 45.5857 24.8171 45.8264 24.7454L53.5834 22.3796C53.9329 22.2732 54.2986 22.7199 54.3056 23.2639L55.5278 107.472C55.5371 108.042 55.1713 108.521 54.8125 108.419L54.8102 108.412Z" fill="white"/>
<path d="M91.2987 96.8982L62.2987 108.449C60.8982 109.007 59.7339 108.155 59.7339 106.53V24.2408C59.7339 22.6181 60.8959 21.7639 62.2987 22.3218L91.2987 33.8727C92.0325 34.1644 92.6181 35.3241 92.6181 36.463V94.3056C92.6181 95.4468 92.0325 96.6042 91.2987 96.8959V96.8982Z" stroke="#FF9D44" stroke-width="2.14583" stroke-miterlimit="10" stroke-linecap="round"/>
<path d="M87.3635 61.7524L68.8728 60.9445C67.639 60.8913 66.6135 59.6112 66.6135 58.088V32.838C66.6135 31.3149 67.6367 30.4283 68.8728 30.8496L87.3635 37.1389C88.1714 37.4144 88.8149 38.6019 88.8149 39.801V59.6505C88.8149 60.8473 88.1714 61.7894 87.3635 61.7547V61.7524Z" fill="white"/>
<path d="M87.3635 93.5672L68.8728 99.8427C67.639 100.262 66.6135 99.3751 66.6135 97.852V72.602C66.6135 71.0788 67.6367 69.801 68.8728 69.7478L87.3635 68.9538C88.1714 68.9191 88.8149 69.8612 88.8149 71.058V90.9075C88.8149 92.1043 88.1714 93.2941 87.3635 93.5672Z" fill="white"/>
<path d="M67.3589 65.3844C67.3589 66.6182 66.521 67.6367 65.4677 67.6575C64.3937 67.6807 63.5071 66.6621 63.5071 65.3844C63.5071 64.1066 64.3937 63.0881 65.4677 63.1112C66.5418 63.1344 67.3589 64.1529 67.3589 65.3844Z" fill="#FF9D44"/>
<path d="M23.4375 135.97V133.612H24.5312V127.446H23.4375V125.087H28.8311V127.446H28.0039V130.002L30.6836 127.446H29.8564V125.087H34.3545V127.446H33.4316L30.7246 129.941H30.9844C31.8138 129.941 32.4313 130.143 32.8369 130.549C33.2425 130.95 33.4544 131.54 33.4727 132.32L33.4863 132.887C33.4954 133.128 33.5479 133.311 33.6436 133.434C33.7438 133.552 33.9124 133.612 34.1494 133.612H34.874V135.97H32.4951C31.6247 135.97 30.9798 135.769 30.5605 135.368C30.1458 134.963 29.9339 134.37 29.9248 133.591L29.9111 132.682C29.8975 131.953 29.5602 131.588 28.8994 131.588H28.0039V133.612H28.9268V135.97H23.4375ZM35.4893 135.97V133.919H36.4805V130.781H35.4893V128.915L39.6934 128.512V129.442C39.9759 129.145 40.3291 128.918 40.7529 128.758C41.1768 128.594 41.6325 128.512 42.1201 128.512C42.945 128.512 43.5488 128.747 43.9316 129.216C44.319 129.681 44.5127 130.383 44.5127 131.322V133.919H45.4697V135.97H41.2314V131.322C41.2314 131.057 41.1745 130.866 41.0605 130.747C40.9466 130.624 40.7962 130.563 40.6094 130.563C40.4544 130.563 40.2995 130.608 40.1445 130.699C39.9941 130.791 39.8665 130.916 39.7617 131.075V133.919H40.377V135.97H35.4893ZM50.3096 136.093C49.4528 136.093 48.7122 135.94 48.0879 135.635C47.4681 135.33 46.9896 134.894 46.6523 134.329C46.3197 133.764 46.1533 133.092 46.1533 132.313C46.1533 131.529 46.3197 130.854 46.6523 130.289C46.9896 129.724 47.4681 129.289 48.0879 128.984C48.7122 128.674 49.4528 128.519 50.3096 128.519C51.1663 128.519 51.9046 128.674 52.5244 128.984C53.1488 129.289 53.6273 129.724 53.96 130.289C54.2972 130.854 54.4658 131.529 54.4658 132.313C54.4658 133.092 54.2972 133.764 53.96 134.329C53.6273 134.894 53.1488 135.33 52.5244 135.635C51.9046 135.94 51.1663 136.093 50.3096 136.093ZM50.3096 134.104C50.9248 134.104 51.2324 133.504 51.2324 132.306C51.2324 131.107 50.9248 130.508 50.3096 130.508C49.6943 130.508 49.3867 131.107 49.3867 132.306C49.3867 133.504 49.6943 134.104 50.3096 134.104ZM59.3672 136.093C58.0729 136.093 57.0521 135.753 56.3047 135.074C55.5618 134.391 55.1904 133.445 55.1904 132.238C55.1904 131.481 55.3477 130.825 55.6621 130.269C55.9811 129.713 56.4049 129.282 56.9336 128.977C57.4668 128.671 58.0524 128.519 58.6904 128.519C59.1553 128.519 59.5632 128.601 59.9141 128.765C60.265 128.924 60.5635 129.145 60.8096 129.428L61.083 128.642H62.5938V131.677H60.625C60.5885 131.285 60.4814 130.993 60.3037 130.802C60.126 130.606 59.9027 130.508 59.6338 130.508C59.3285 130.508 59.055 130.64 58.8135 130.905C58.5765 131.164 58.458 131.6 58.458 132.21C58.458 132.844 58.6243 133.297 58.957 133.571C59.2897 133.839 59.7113 133.974 60.2217 133.974C60.6045 133.974 60.9736 133.899 61.3291 133.748C61.6891 133.598 61.999 133.413 62.2588 133.195L62.4434 133.277V135.307C62.2292 135.457 61.9535 135.592 61.6162 135.71C61.279 135.829 60.9144 135.922 60.5225 135.99C60.1305 136.059 59.7454 136.093 59.3672 136.093ZM63.3047 135.97V133.919H64.2959V127.616H63.3047V125.75L67.5771 125.306V132.101L69.252 130.693H68.1992V128.642H72.8203V130.693H71.5215L70.332 131.691L71.9385 133.919H72.9639V135.97H69.4912L67.5771 133.256V135.97H63.3047ZM76.4707 135.97V133.612H77.5645V127.446H76.4707V125.087H81.8643V127.446H81.0371V130.002L83.7168 127.446H82.8896V125.087H87.3877V127.446H86.4648L83.7578 129.941H84.0176C84.847 129.941 85.4645 130.143 85.8701 130.549C86.2757 130.95 86.4876 131.54 86.5059 132.32L86.5195 132.887C86.5286 133.128 86.5811 133.311 86.6768 133.434C86.777 133.552 86.9456 133.612 87.1826 133.612H87.9072V135.97H85.5283C84.6579 135.97 84.013 135.769 83.5938 135.368C83.179 134.963 82.9671 134.37 82.958 133.591L82.9443 132.682C82.9307 131.953 82.5934 131.588 81.9326 131.588H81.0371V133.612H81.96V135.97H76.4707ZM88.5225 135.97V133.919H89.5137V130.781H88.5225V128.915L92.7266 128.512V129.442C93.0091 129.145 93.3623 128.918 93.7861 128.758C94.21 128.594 94.6657 128.512 95.1533 128.512C95.9782 128.512 96.582 128.747 96.9648 129.216C97.3522 129.681 97.5459 130.383 97.5459 131.322V133.919H98.5029V135.97H94.2646V131.322C94.2646 131.057 94.2077 130.866 94.0938 130.747C93.9798 130.624 93.8294 130.563 93.6426 130.563C93.4876 130.563 93.3327 130.608 93.1777 130.699C93.0273 130.791 92.8997 130.916 92.7949 131.075V133.919H93.4102V135.97H88.5225ZM103.343 136.093C102.486 136.093 101.745 135.94 101.121 135.635C100.501 135.33 100.023 134.894 99.6855 134.329C99.3529 133.764 99.1865 133.092 99.1865 132.313C99.1865 131.529 99.3529 130.854 99.6855 130.289C100.023 129.724 100.501 129.289 101.121 128.984C101.745 128.674 102.486 128.519 103.343 128.519C104.2 128.519 104.938 128.674 105.558 128.984C106.182 129.289 106.66 129.724 106.993 130.289C107.33 130.854 107.499 131.529 107.499 132.313C107.499 133.092 107.33 133.764 106.993 134.329C106.66 134.894 106.182 135.33 105.558 135.635C104.938 135.94 104.2 136.093 103.343 136.093ZM103.343 134.104C103.958 134.104 104.266 133.504 104.266 132.306C104.266 131.107 103.958 130.508 103.343 130.508C102.728 130.508 102.42 131.107 102.42 132.306C102.42 133.504 102.728 134.104 103.343 134.104ZM112.4 136.093C111.106 136.093 110.085 135.753 109.338 135.074C108.595 134.391 108.224 133.445 108.224 132.238C108.224 131.481 108.381 130.825 108.695 130.269C109.014 129.713 109.438 129.282 109.967 128.977C110.5 128.671 111.086 128.519 111.724 128.519C112.188 128.519 112.596 128.601 112.947 128.765C113.298 128.924 113.597 129.145 113.843 129.428L114.116 128.642H115.627V131.677H113.658C113.622 131.285 113.515 130.993 113.337 130.802C113.159 130.606 112.936 130.508 112.667 130.508C112.362 130.508 112.088 130.64 111.847 130.905C111.61 131.164 111.491 131.6 111.491 132.21C111.491 132.844 111.658 133.297 111.99 133.571C112.323 133.839 112.744 133.974 113.255 133.974C113.638 133.974 114.007 133.899 114.362 133.748C114.722 133.598 115.032 133.413 115.292 133.195L115.477 133.277V135.307C115.262 135.457 114.987 135.592 114.649 135.71C114.312 135.829 113.948 135.922 113.556 135.99C113.164 136.059 112.779 136.093 112.4 136.093ZM116.338 135.97V133.919H117.329V127.616H116.338V125.75L120.61 125.306V132.101L122.285 130.693H121.232V128.642H125.854V130.693H124.555L123.365 131.691L124.972 133.919H125.997V135.97H122.524L120.61 133.256V135.97H116.338Z" fill="white"/>
</svg>
