<svg width="150" height="150" viewBox="0 0 150 150" fill="none" xmlns="http://www.w3.org/2000/svg">
<path d="M97.0605 44.4948L102.181 43.0573C102.604 42.9392 103.01 43.3304 103.01 43.8628V66.8489L111.352 40.8559C111.435 40.5989 111.616 40.4068 111.836 40.3466L121.755 37.5596C122.315 37.4022 122.773 38.1059 122.519 38.7355L109.065 72.0387L123.38 108.421C123.628 109.05 123.172 109.745 122.614 109.59L112.581 106.773C112.361 106.71 112.179 106.52 112.098 106.261L103.01 77.8582V103.046C103.01 103.578 102.607 103.969 102.181 103.851L97.0605 102.414C96.7526 102.328 96.5327 101.99 96.5327 101.604V45.305C96.5327 44.9184 96.7526 44.5804 97.0605 44.4948Z" fill="#172229"/>
<path d="M54.535 118.261L45.9678 115.798C45.7201 115.726 45.5512 115.423 45.5488 115.048L45.3706 79.3605L35.4377 111.923C35.3035 112.365 34.9586 112.631 34.6414 112.541L26.4863 110.196C26.0836 110.08 25.8868 109.502 26.0674 108.967L38.4748 71.9808L27.6275 41.129C27.447 40.6151 27.6345 40.0549 28.0234 39.9368L35.7271 37.5873C36.0326 37.4947 36.366 37.7401 36.5049 38.1568L45.3012 64.8813L45.153 35.3165C45.153 34.9577 45.3104 34.666 45.5512 34.5943L53.3081 32.2285C53.6576 32.122 54.0234 32.5688 54.0303 33.1128L55.2525 117.321C55.2618 117.891 54.8961 118.37 54.5373 118.268L54.535 118.261Z" fill="#172229"/>
<path d="M91.0233 106.747L62.0233 118.298C60.6229 118.856 59.4585 118.004 59.4585 116.379V34.0897C59.4585 32.467 60.6205 31.6128 62.0233 32.1707L91.0233 43.7216C91.7571 44.0133 92.3428 45.173 92.3428 46.3119V104.154C92.3428 105.296 91.7571 106.453 91.0233 106.745V106.747Z" stroke="#FF9D44" stroke-width="2.14583" stroke-miterlimit="10" stroke-linecap="round"/>
<path d="M87.0881 71.6012L68.5974 70.7934C67.3636 70.7401 66.3381 69.46 66.3381 67.9369V42.6869C66.3381 41.1637 67.3613 40.2772 68.5974 40.6985L87.0881 46.9878C87.896 47.2633 88.5395 48.4508 88.5395 49.6499V69.4994C88.5395 70.6961 87.896 71.6383 87.0881 71.6036V71.6012Z" fill="#172229"/>
<path d="M87.0881 103.416L68.5974 109.692C67.3636 110.111 66.3381 109.224 66.3381 107.701V82.4508C66.3381 80.9277 67.3613 79.6499 68.5974 79.5967L87.0881 78.8027C87.896 78.768 88.5395 79.7101 88.5395 80.9069V100.756C88.5395 101.953 87.896 103.143 87.0881 103.416Z" fill="#172229"/>
<path d="M67.0835 75.2332C67.0835 76.467 66.2456 77.4856 65.1923 77.5064C64.1183 77.5295 63.2317 76.511 63.2317 75.2332C63.2317 73.9555 64.1183 72.937 65.1923 72.9601C66.2664 72.9833 67.0835 74.0018 67.0835 75.2332Z" fill="#FF9D44"/>
</svg>
