<svg width="24" height="25" viewBox="0 0 24 25" fill="none" xmlns="http://www.w3.org/2000/svg">
<path d="M17 3.5H21C21.2652 3.5 21.5196 3.60536 21.7071 3.79289C21.8946 3.98043 22 4.23478 22 4.5V20.5C22 20.7652 21.8946 21.0196 21.7071 21.2071C21.5196 21.3946 21.2652 21.5 21 21.5H3C2.73478 21.5 2.48043 21.3946 2.29289 21.2071C2.10536 21.0196 2 20.7652 2 20.5V4.5C2 4.23478 2.10536 3.98043 2.29289 3.79289C2.48043 3.60536 2.73478 3.5 3 3.5H7V1.5H9V3.5H15V1.5H17V3.5ZM20 9.5V5.5H17V7.5H15V5.5H9V7.5H7V5.5H4V9.5H20ZM20 11.5H4V19.5H20V11.5ZM6 13.5H11V17.5H6V13.5Z" fill="black"/>
</svg>
