<svg width="150" height="150" viewBox="0 0 150 150" fill="none" xmlns="http://www.w3.org/2000/svg">
<rect width="150" height="150" fill="black"/>
<path d="M107.668 29.897L115.22 27.7769C115.845 27.6028 116.442 28.1798 116.442 28.965V62.8668L128.747 24.5301C128.87 24.1511 129.136 23.8678 129.46 23.779L144.09 19.6685C144.916 19.4363 145.592 20.4742 145.216 21.4028L125.374 70.5211L146.486 124.18C146.852 125.109 146.179 126.133 145.356 125.904L130.56 121.749C130.235 121.657 129.966 121.377 129.846 120.995L116.442 79.1041V116.253C116.442 117.038 115.848 117.615 115.22 117.441L107.668 115.321C107.214 115.194 106.89 114.696 106.89 114.126V31.092C106.89 30.5218 107.214 30.0234 107.668 29.897Z" fill="white"/>
<path d="M44.9473 138.693L32.3119 135.061C31.9466 134.955 31.6973 134.508 31.6939 133.955L31.431 81.3198L16.7812 129.346C16.5832 129.998 16.0745 130.39 15.6068 130.257L3.57899 126.799C2.98494 126.628 2.69475 125.774 2.96105 124.986L21.2605 70.4357L5.26213 24.9329C4.99583 24.175 5.27237 23.3488 5.84594 23.1747L17.208 19.7094C17.6586 19.5728 18.1503 19.9347 18.3551 20.5492L31.3286 59.9647L31.1101 16.3602C31.1101 15.831 31.3423 15.4008 31.6973 15.295L43.1379 11.8058C43.6534 11.6487 44.1928 12.3076 44.2031 13.11L46.0057 137.307C46.0194 138.147 45.4799 138.854 44.9508 138.704L44.9473 138.693Z" fill="white"/>
<path d="M98.7636 121.712L55.992 138.748C53.9265 139.571 52.2092 138.315 52.2092 135.918V14.5509C52.2092 12.1577 53.9231 10.8979 55.992 11.7207L98.7636 28.7569C99.8458 29.1871 100.71 30.8975 100.71 32.5772V117.888C100.71 119.571 99.8458 121.278 98.7636 121.709V121.712Z" stroke="#FF9D44" stroke-width="2.14583" stroke-miterlimit="10" stroke-linecap="round"/>
<path d="M92.96 69.8759L65.6883 68.6844C63.8686 68.6058 62.3562 66.7179 62.3562 64.4714V27.2307C62.3562 24.9842 63.8652 23.6766 65.6883 24.298L92.96 33.574C94.1515 33.9803 95.1006 35.7317 95.1006 37.5002V66.7759C95.1006 68.541 94.1515 69.9305 92.96 69.8793V69.8759Z" fill="white"/>
<path d="M92.96 116.799L65.6883 126.055C63.8686 126.673 62.3562 125.365 62.3562 123.119V85.878C62.3562 83.6315 63.8652 81.747 65.6883 81.6684L92.96 80.4974C94.1515 80.4462 95.1006 81.8357 95.1006 83.6008V112.876C95.1006 114.642 94.1515 116.396 92.96 116.799Z" fill="white"/>
<path d="M63.4559 75.2328C63.4559 77.0525 62.22 78.5547 60.6666 78.5854C59.0825 78.6196 57.7749 77.1174 57.7749 75.2328C57.7749 73.3483 59.0825 71.8461 60.6666 71.8802C62.2508 71.9144 63.4559 73.4165 63.4559 75.2328Z" fill="#FF9D44"/>
</svg>
